<?xml version="1.0" standalone="no"?>
<!DOCTYPE svg PUBLIC "-//W3C//DTD SVG 20010904//EN"
 "http://www.w3.org/TR/2001/REC-SVG-20010904/DTD/svg10.dtd">
<svg version="1.0" xmlns="http://www.w3.org/2000/svg"
 width="700.000000pt" height="700.000000pt" viewBox="0 0 700.000000 700.000000"
 preserveAspectRatio="xMidYMid meet">
<metadata>
Created by potrace 1.14, written by Peter Selinger 2001-2017
</metadata>
<g transform="translate(0.000000,700.000000) scale(0.100000,-0.100000)"
fill="#000000" stroke="none">
<path d="M3473 6728 c-3 -7 -1 -8 5 -4 7 4 12 2 12 -3 0 -15 -27 -14 -34 2 -4
6 -4 2 -2 -11 4 -19 -2 -26 -25 -36 -23 -10 -26 -15 -16 -25 10 -11 8 -11 -11
-1 -22 11 -23 10 -13 -8 9 -17 8 -19 -9 -15 -11 3 -20 0 -20 -6 0 -6 -9 -11
-20 -11 -11 0 -20 -5 -20 -11 0 -5 5 -7 12 -3 7 5 8 3 4 -5 -5 -7 -13 -10 -20
-8 -6 3 -21 -2 -31 -10 -19 -14 -19 -15 5 -8 19 5 22 4 14 -4 -6 -7 -20 -13
-32 -14 -11 0 -20 -4 -20 -7 2 -22 -4 -40 -13 -40 -5 0 -7 6 -3 13 5 8 3 8 -9
-2 -9 -7 -14 -17 -11 -23 7 -11 -15 -40 -27 -33 -4 3 -19 -5 -31 -17 -13 -13
-29 -22 -36 -20 -7 2 -11 -3 -10 -10 2 -7 -3 -12 -10 -10 -8 1 -11 -2 -7 -8 3
-5 1 -10 -5 -10 -6 0 -8 -5 -4 -12 6 -10 5 -10 -8 0 -13 10 -15 9 -13 -13 2
-14 -1 -23 -6 -19 -5 3 -6 10 -3 16 4 7 2 8 -5 4 -6 -4 -9 -12 -6 -17 4 -5 0
-9 -8 -9 -8 0 -18 -8 -22 -17 -5 -15 -4 -16 6 -5 7 6 17 12 23 12 5 0 1 -6 -9
-14 -11 -8 -24 -12 -30 -9 -7 2 -18 -4 -26 -14 -12 -16 -12 -17 2 -6 12 10 16
10 16 0 0 -7 -9 -14 -20 -14 -11 -1 -27 -10 -36 -19 -15 -17 -15 -17 2 -5 9 8
20 11 24 7 3 -3 1 -6 -6 -6 -7 0 -10 -4 -7 -9 4 -5 -5 -8 -19 -6 -14 1 -25 -2
-25 -6 0 -5 5 -9 11 -9 5 0 7 -5 4 -10 -4 -6 -11 -8 -16 -5 -5 4 -9 1 -9 -5 0
-6 -4 -9 -9 -6 -11 7 -34 -20 -27 -32 3 -6 -2 -16 -11 -23 -12 -10 -14 -10 -9
-1 4 6 2 12 -3 12 -9 0 -15 -19 -13 -41 1 -3 -6 -6 -13 -6 -12 0 -12 4 -3 16
8 11 5 10 -8 -2 -16 -15 -17 -19 -4 -28 12 -9 11 -10 -7 -6 -13 3 -24 -1 -27
-10 -3 -8 -11 -11 -16 -8 -6 4 -10 3 -9 -2 3 -20 -2 -33 -12 -30 -6 1 -13 -7
-15 -18 -1 -10 -13 -28 -26 -38 -13 -10 -18 -16 -12 -13 6 3 11 -1 11 -7 0 -7
-9 -14 -20 -15 -11 0 -30 -11 -41 -23 l-21 -21 30 17 30 17 -25 -21 c-14 -11
-32 -21 -40 -22 -10 0 -11 -2 -2 -6 21 -8 13 -20 -13 -18 -14 2 -23 -1 -19 -6
3 -5 -2 -12 -11 -15 -12 -5 -13 -9 -4 -21 7 -8 8 -13 3 -11 -12 4 -64 -50 -64
-67 0 -7 -8 -19 -18 -28 -15 -13 -21 -14 -31 -4 -11 10 -12 8 -6 -12 5 -18 4
-22 -6 -16 -9 6 -11 3 -5 -10 5 -15 4 -16 -9 -5 -13 11 -14 10 -9 -4 4 -9 1
-16 -6 -16 -7 0 -10 -7 -6 -17 4 -10 4 -14 0 -11 -10 11 -32 -16 -26 -32 5
-12 3 -13 -10 -3 -12 11 -18 9 -33 -7 -10 -11 -15 -20 -10 -20 4 0 14 8 22 18
13 15 13 15 3 -5 -6 -13 -17 -23 -25 -23 -8 0 -15 -7 -15 -15 0 -8 -5 -15 -11
-15 -8 0 -8 -4 0 -14 9 -11 6 -13 -14 -10 -20 2 -24 -1 -15 -10 7 -10 6 -17
-5 -26 -9 -7 -18 -10 -22 -6 -3 3 -1 6 5 6 7 0 12 5 12 11 0 8 -5 8 -15 -1
-12 -10 -13 -16 -3 -28 10 -13 10 -14 0 -8 -8 5 -15 -2 -22 -18 -5 -14 -12
-26 -15 -26 -4 0 -3 6 1 13 6 9 4 9 -8 -1 -9 -7 -15 -22 -13 -33 2 -11 0 -17
-6 -14 -5 4 -9 1 -9 -5 0 -6 -4 -9 -9 -6 -4 3 -7 -6 -5 -19 2 -21 0 -23 -16
-15 -15 8 -18 6 -16 -14 2 -19 -1 -23 -13 -19 -9 4 -13 3 -9 -2 4 -4 -4 -17
-18 -27 -20 -16 -22 -23 -13 -34 10 -12 9 -13 -5 -8 -11 4 -16 2 -14 -7 2 -8
-3 -13 -10 -11 -10 2 -10 -2 -1 -20 12 -22 11 -22 -6 -8 -10 8 -16 10 -12 3 4
-6 1 -18 -7 -26 -8 -8 -12 -17 -9 -21 4 -3 1 -6 -5 -6 -7 0 -11 -5 -10 -12 2
-7 -4 -12 -12 -13 -8 -1 -14 -6 -12 -13 1 -7 -6 -12 -15 -12 -15 0 -16 -2 -3
-10 13 -8 13 -10 -2 -10 -9 0 -20 -5 -24 -12 -4 -7 -3 -8 4 -4 7 4 12 2 12 -3
0 -6 -7 -11 -16 -11 -8 0 -12 -4 -9 -10 3 -5 1 -10 -6 -10 -7 0 -9 -3 -6 -7 4
-3 -1 -12 -11 -20 -9 -8 -11 -11 -3 -7 9 5 12 3 7 -4 -4 -7 -14 -12 -23 -12
-9 0 -13 -6 -9 -15 3 -10 -1 -15 -12 -15 -15 0 -15 -2 -2 -10 13 -8 13 -10 -2
-10 -12 0 -15 -5 -11 -17 5 -12 3 -14 -7 -8 -10 6 -12 4 -7 -8 4 -10 0 -18
-12 -22 -12 -4 -17 -14 -15 -31 2 -21 0 -23 -12 -13 -12 10 -13 9 -8 -5 3 -9
1 -16 -4 -16 -6 0 -12 -10 -14 -22 -2 -13 -9 -22 -17 -20 -12 3 -12 0 -1 -13
11 -13 10 -15 -2 -10 -12 5 -15 0 -13 -18 3 -21 0 -24 -19 -19 -19 5 -19 4 -7
-11 12 -15 11 -17 -4 -17 -11 0 -15 -5 -11 -15 5 -14 -5 -20 -27 -16 -4 1 -3
-8 4 -20 6 -12 7 -19 2 -16 -10 6 -28 -14 -28 -33 0 -8 -6 -14 -14 -12 -11 2
-12 0 -2 -11 9 -12 8 -16 -3 -20 -9 -4 -21 -27 -27 -51 -6 -25 -15 -43 -20
-40 -5 3 -9 -2 -9 -11 0 -9 -9 -25 -20 -37 -11 -12 -20 -35 -20 -51 0 -21 -4
-28 -14 -24 -9 4 -13 0 -11 -11 1 -9 -7 -23 -19 -30 -13 -8 -15 -11 -4 -8 12
3 15 1 11 -10 -3 -7 -9 -14 -13 -14 -4 0 -11 -7 -14 -16 -3 -8 -2 -12 4 -9 6
3 10 1 10 -4 0 -6 -9 -11 -20 -11 -11 0 -20 -5 -20 -11 0 -5 4 -7 10 -4 6 3 7
-1 4 -9 -3 -9 -11 -16 -16 -16 -6 0 -8 -6 -5 -14 3 -8 -1 -17 -10 -20 -9 -4
-13 -14 -10 -25 3 -12 -1 -22 -10 -25 -9 -4 -13 -13 -9 -21 3 -9 -3 -24 -14
-35 -12 -12 -15 -20 -7 -20 9 0 8 -3 -2 -9 -8 -5 -10 -14 -6 -21 5 -9 4 -11
-3 -6 -8 5 -12 0 -12 -13 0 -27 -10 -51 -22 -51 -5 0 -6 5 -2 12 4 7 3 8 -5 4
-9 -6 -9 -11 -1 -21 11 -13 -2 -51 -24 -66 -5 -4 -5 -12 -2 -18 4 -6 1 -11 -6
-11 -11 0 -10 -2 0 -9 11 -6 10 -10 -3 -15 -14 -5 -15 -9 -5 -21 11 -13 10
-14 -5 -9 -13 6 -16 4 -10 -5 4 -8 2 -17 -6 -22 -11 -7 -11 -9 -1 -9 10 0 9
-4 -2 -16 -9 -8 -14 -20 -10 -25 3 -6 1 -15 -4 -22 -5 -7 -8 -20 -7 -29 2 -10
-1 -18 -6 -18 -4 0 -6 -7 -3 -15 4 -8 1 -15 -5 -15 -6 0 -8 -7 -4 -17 4 -10 2
-14 -5 -9 -7 4 -10 -4 -10 -21 1 -28 -5 -53 -23 -85 -5 -11 -5 -20 3 -24 8 -5
7 -10 -3 -18 -8 -6 -15 -20 -16 -31 -1 -11 -3 -33 -5 -50 -1 -16 -7 -33 -13
-37 -6 -5 -4 -8 4 -8 11 0 9 -4 -5 -15 -11 -8 -14 -14 -6 -15 9 0 10 -5 4 -17
-5 -10 -7 -24 -4 -32 3 -9 0 -11 -8 -6 -9 5 -10 2 -6 -11 3 -11 2 -25 -3 -33
-5 -7 -5 -28 -1 -47 5 -23 4 -32 -3 -27 -6 4 -8 -4 -5 -21 3 -14 2 -26 -2 -26
-11 0 -20 -39 -10 -45 5 -3 5 -19 0 -35 -5 -16 -5 -32 0 -35 4 -3 4 -21 0 -40
-4 -19 -4 -37 0 -40 5 -3 7 -14 4 -25 -2 -11 -6 -29 -8 -40 -3 -11 -1 -22 4
-25 8 -5 6 -37 -4 -53 -2 -4 -1 -14 4 -21 4 -8 4 -27 0 -42 -5 -16 -5 -31 0
-34 4 -3 4 -21 0 -40 -4 -19 -4 -37 0 -40 4 -2 6 -16 5 -30 -2 -14 0 -25 5
-25 4 0 6 -10 6 -23 -1 -12 1 -29 5 -38 4 -8 4 -21 -1 -29 -5 -9 -5 -17 0 -20
6 -3 11 -18 12 -33 1 -15 5 -27 9 -27 3 0 4 -11 1 -25 -2 -14 2 -33 9 -42 12
-15 12 -16 -1 -8 -13 8 -13 6 -2 -8 8 -9 11 -21 7 -27 -3 -5 -2 -10 3 -10 5 0
8 -11 7 -25 -2 -14 0 -25 4 -25 4 0 8 -7 9 -15 1 -8 3 -22 4 -30 1 -8 5 -15 9
-15 4 0 7 -6 6 -12 -1 -32 4 -49 12 -44 5 4 7 -3 4 -14 -3 -11 0 -27 7 -35 7
-8 10 -22 6 -30 -3 -9 1 -18 8 -21 8 -3 13 -14 11 -25 -2 -11 4 -23 15 -29 11
-6 17 -18 15 -30 -2 -11 0 -20 5 -20 4 0 11 -7 14 -16 3 -8 2 -12 -4 -9 -6 3
-10 1 -10 -4 0 -6 9 -16 20 -23 22 -14 28 -33 8 -23 -7 4 -5 0 4 -8 10 -8 18
-24 18 -36 0 -11 5 -20 11 -18 6 1 14 -4 17 -12 3 -9 0 -11 -9 -7 -8 4 -6 1 5
-8 10 -8 15 -19 11 -25 -3 -6 -2 -11 3 -11 5 0 17 -11 26 -25 15 -23 15 -24
-1 -19 -13 4 -12 1 3 -8 12 -7 19 -18 17 -24 -2 -6 4 -17 14 -25 17 -13 17
-13 3 6 -14 19 -14 19 2 6 10 -7 16 -17 13 -21 -8 -13 17 -52 60 -94 22 -22
32 -37 23 -33 -10 3 -20 2 -23 -4 -4 -5 -1 -8 7 -7 7 2 12 -2 11 -9 -2 -6 9
-21 22 -31 14 -11 25 -25 25 -30 0 -6 9 -14 21 -17 16 -5 18 -9 8 -21 -10 -12
-10 -15 2 -12 8 2 13 -2 12 -9 -2 -8 4 -10 14 -6 11 4 14 3 9 -5 -4 -7 -2 -12
4 -12 6 0 8 -5 4 -12 -5 -8 -2 -9 12 -4 10 4 15 4 11 0 -12 -12 13 -33 31 -27
15 6 15 5 3 -11 -13 -15 -12 -18 7 -23 12 -3 19 -10 15 -16 -4 -7 0 -8 11 -4
14 5 17 3 12 -8 -4 -10 1 -15 14 -15 12 0 28 -13 40 -32 11 -18 22 -31 24 -28
2 3 8 1 13 -4 4 -5 3 -6 -4 -2 -6 3 -15 2 -18 -4 -4 -6 -3 -10 2 -9 21 4 34
-2 27 -13 -4 -6 -3 -9 2 -5 5 3 20 -1 34 -9 l25 -15 -25 6 c-23 5 -22 4 5 -12
17 -9 35 -17 40 -18 6 0 9 -10 7 -23 -3 -17 0 -20 14 -15 12 4 15 3 10 -5 -4
-7 -2 -12 4 -12 6 0 8 -5 4 -12 -5 -8 -2 -9 11 -4 14 5 15 4 7 -7 -8 -10 -6
-13 9 -14 12 -1 17 3 13 9 -4 7 -2 8 5 4 6 -4 9 -11 6 -16 -3 -4 3 -14 12 -21
11 -10 14 -10 9 -2 -5 9 -2 11 8 7 9 -3 12 -12 9 -21 -4 -11 -2 -14 5 -9 6 4
20 -2 32 -14 11 -11 24 -20 30 -20 6 0 10 -4 10 -10 0 -5 7 -10 15 -10 8 0 15
-4 15 -10 0 -5 9 -10 21 -10 11 0 17 -4 14 -10 -3 -5 1 -10 9 -10 8 0 18 -5
22 -12 5 -7 3 -8 -6 -3 -8 5 -11 4 -6 -3 4 -6 13 -9 22 -5 8 3 23 -2 33 -11
10 -9 21 -13 25 -9 4 4 4 0 0 -10 -4 -12 -2 -16 8 -12 7 3 23 -3 35 -14 15
-14 23 -17 26 -8 3 7 6 4 6 -5 1 -10 5 -18 11 -18 5 0 7 8 3 17 -5 15 -3 14
10 -2 8 -11 13 -23 11 -26 -2 -4 5 -5 16 -2 12 3 20 0 20 -7 0 -7 7 -10 15 -6
9 3 15 0 15 -10 0 -11 6 -15 20 -11 13 3 25 -2 34 -15 10 -14 15 -16 19 -6 4
11 6 11 6 0 1 -7 6 -10 13 -6 8 5 9 2 5 -9 -7 -17 12 -20 24 -3 4 5 12 -1 18
-12 6 -12 17 -19 25 -16 7 3 18 -2 25 -10 7 -8 19 -12 26 -10 8 3 24 -4 36
-15 14 -13 26 -18 32 -12 11 11 39 3 32 -9 -2 -4 7 -5 20 -2 15 2 25 0 25 -7
0 -7 5 -9 10 -6 6 3 10 1 10 -4 0 -6 5 -11 11 -11 5 0 7 6 3 13 -6 8 -3 8 9
-1 14 -12 39 -19 85 -24 6 -1 12 -5 12 -9 0 -5 6 -6 14 -3 8 3 17 1 20 -5 4
-6 13 -8 21 -4 8 3 15 1 15 -4 0 -5 15 -7 33 -5 17 2 50 -3 72 -10 24 -8 55
-11 78 -7 20 3 37 3 37 0 0 -4 12 -8 27 -9 15 -1 30 -6 33 -12 3 -5 11 -5 19
0 8 4 25 4 38 -1 12 -5 23 -5 23 0 0 5 18 5 40 1 22 -4 40 -3 40 2 0 5 9 4 20
-2 14 -8 20 -8 20 0 0 8 6 8 20 0 14 -8 20 -8 20 0 0 8 6 8 20 0 11 -6 20 -7
20 -2 0 5 18 6 40 2 22 -4 40 -4 40 -1 0 4 16 6 35 6 19 -1 35 3 35 8 0 5 7 7
15 3 8 -3 15 -1 15 5 0 6 7 6 20 -1 15 -8 20 -8 20 1 0 9 3 9 14 0 9 -8 16 -8
20 -2 4 6 14 7 23 4 11 -4 14 -3 9 5 -5 8 -2 10 8 6 9 -3 13 -11 9 -17 -3 -6
-1 -7 6 -3 6 4 8 12 5 18 -4 7 9 9 39 7 25 -2 43 0 40 5 -3 5 6 7 20 4 16 -3
31 0 38 9 9 11 15 11 27 1 13 -10 14 -10 8 0 -4 6 -4 12 1 13 4 0 17 2 28 5
11 2 34 5 52 7 17 1 29 5 27 8 -5 9 21 19 47 19 10 0 19 4 19 9 0 5 9 7 20 4
11 -3 20 0 20 6 0 6 5 11 11 11 5 0 7 -6 4 -12 -4 -7 -1 -6 7 3 7 9 23 15 35
14 18 -1 20 1 11 12 -8 11 -7 12 6 7 10 -4 16 -1 16 7 0 10 3 10 12 1 10 -10
16 -8 31 10 10 13 16 17 12 11 -3 -7 -1 -13 4 -13 6 0 11 4 11 10 0 5 7 6 17
3 11 -4 14 -3 9 5 -7 11 21 18 48 13 5 -1 3 6 -4 16 -8 10 -10 15 -6 11 5 -4
15 -3 22 3 8 6 21 8 30 5 11 -4 15 -2 11 8 -4 11 -1 13 10 9 12 -5 14 -3 8 8
-7 11 -6 12 6 2 16 -13 45 -2 36 14 -3 5 4 10 15 10 12 1 24 7 28 13 4 6 20
12 35 13 16 1 30 9 32 17 4 13 3 13 -7 0 -10 -13 -11 -13 -7 0 2 8 12 14 21
12 9 -2 19 4 22 13 5 12 9 13 21 4 11 -10 13 -9 11 2 -2 8 4 13 15 13 15 -2
16 1 5 15 -7 9 -8 13 -4 9 5 -4 15 -3 23 4 11 9 12 7 7 -8 -4 -12 1 -10 12 7
11 15 27 25 37 23 15 -2 16 0 6 12 -10 12 -9 13 5 8 9 -3 16 -2 16 4 0 5 9 12
21 15 12 3 18 10 15 15 -3 5 4 9 17 8 13 -1 22 5 22 14 0 8 9 16 20 18 11 2
25 9 30 14 7 8 5 9 -5 4 -9 -5 -9 -2 2 7 10 8 14 18 10 23 -4 4 2 2 12 -6 18
-14 19 -14 7 7 -10 19 -9 22 4 16 15 -5 50 29 50 49 0 3 4 10 9 15 5 5 6 3 2
-4 -4 -7 -2 -13 3 -13 6 0 11 9 11 19 0 10 8 22 18 26 14 5 15 4 5 -6 -7 -7
-13 -17 -13 -23 0 -5 6 -1 14 9 8 11 12 24 9 30 -2 7 4 18 14 26 16 12 17 12
6 -2 -10 -12 -10 -16 0 -16 7 0 14 9 14 20 1 11 10 27 19 36 17 15 17 15 5 -2
-8 -9 -11 -20 -7 -24 3 -3 6 -1 6 6 0 7 4 10 9 7 5 -4 8 5 6 19 -2 25 10 35
17 14 2 -6 12 0 23 13 20 22 20 22 0 8 -17 -13 -16 -11 4 18 12 17 25 32 28
32 3 0 0 -6 -6 -13 -8 -10 -7 -14 3 -14 9 0 13 9 11 24 -2 24 10 32 18 11 3
-8 6 -5 6 5 1 10 5 16 10 13 12 -8 33 19 23 29 -4 5 2 5 12 1 16 -5 17 -4 6 9
-8 10 -9 15 -1 15 6 0 11 7 11 15 0 8 7 15 15 15 9 0 18 7 21 15 4 8 11 12 17
8 6 -3 7 -1 3 6 -4 6 -13 9 -19 5 -7 -3 -4 1 5 9 10 8 15 17 11 20 -3 4 1 7
10 7 9 0 19 5 23 12 4 7 3 8 -4 4 -8 -5 -10 -2 -6 8 3 9 13 16 21 16 9 0 13 6
9 15 -5 14 5 20 27 16 5 -1 6 3 2 9 -3 6 -12 8 -18 4 -7 -3 -2 3 9 13 12 10
20 26 19 35 -2 11 2 15 11 11 11 -4 14 1 10 20 -3 20 -1 25 11 20 11 -4 14 -2
9 5 -4 7 -2 12 4 12 6 0 8 5 4 12 -5 8 -2 9 10 5 14 -5 15 -3 6 13 -8 15 -8
18 3 14 8 -3 17 2 21 11 3 9 2 13 -4 10 -6 -3 -7 1 -4 9 3 9 10 13 15 10 13
-7 11 10 -2 23 -8 8 -7 13 2 18 8 5 10 4 5 -3 -4 -7 -3 -12 3 -12 6 0 14 15
19 33 5 18 15 31 22 29 11 -3 11 0 0 12 -10 14 -10 16 5 16 11 0 15 5 11 15
-3 8 -2 15 2 15 7 0 12 24 15 67 0 7 4 10 9 7 4 -3 8 0 8 6 0 6 4 9 8 6 4 -2
9 5 10 17 1 12 4 31 6 42 3 11 5 24 5 28 1 5 5 6 10 3 5 -4 7 3 4 14 -3 12 0
20 7 20 9 0 9 4 -1 17 -10 11 -10 14 -1 9 11 -7 18 12 13 38 -1 5 5 6 13 3 10
-4 13 -1 9 8 -3 8 -10 12 -16 8 -6 -4 0 9 13 27 13 18 19 30 12 26 -7 -4 -12
-2 -12 3 0 6 5 11 11 11 5 0 8 4 5 8 -3 5 1 21 9 36 8 14 10 24 5 21 -6 -4
-10 1 -10 9 0 9 7 16 16 16 12 0 14 3 6 13 -7 8 -7 18 -2 27 5 9 5 19 -2 27
-7 9 -7 13 2 13 7 0 10 7 6 15 -3 8 -2 15 3 15 9 0 9 3 11 82 1 38 6 56 13 51
6 -3 7 -1 3 6 -4 6 -3 18 4 26 8 9 8 15 0 20 -8 5 -8 10 0 20 8 10 8 15 0 20
-8 5 -8 11 1 21 9 11 9 14 0 14 -9 0 -9 5 -1 20 8 14 8 20 0 20 -8 0 -8 6 0
20 8 15 8 20 -1 20 -9 0 -9 3 0 14 8 9 8 16 2 20 -10 6 -8 37 4 56 3 6 1 10
-5 10 -8 0 -8 6 0 20 8 14 8 20 0 20 -8 0 -8 6 0 20 8 14 8 20 0 20 -6 0 -8 4
-5 10 12 19 14 50 4 56 -6 4 -6 11 2 20 9 11 9 14 -1 14 -10 0 -10 3 -1 14 9
10 9 16 1 21 -8 5 -8 11 1 21 6 8 7 14 2 14 -11 0 -13 7 -16 80 -1 30 -5 57
-9 60 -4 3 -10 21 -12 40 -8 53 -11 64 -20 79 -7 10 -6 12 4 6 8 -5 11 -3 8 6
-3 8 -11 13 -17 12 -14 -4 -14 10 -1 23 6 6 4 19 -5 37 -8 15 -10 25 -5 22 6
-4 10 -1 10 4 0 6 -5 11 -11 11 -5 0 -7 5 -4 10 3 6 0 10 -7 10 -9 0 -9 3 2
10 10 6 11 10 3 10 -8 0 -13 13 -13 29 0 17 -4 32 -10 36 -5 3 -7 12 -3 20 3
9 -1 15 -8 15 -11 0 -11 3 1 10 12 7 12 10 1 10 -7 0 -11 6 -8 14 3 8 1 16 -5
18 -6 2 -11 18 -11 36 0 18 -4 32 -9 32 -4 0 -8 11 -8 25 0 14 -6 25 -12 25
-9 0 -8 4 2 10 12 8 12 10 1 10 -8 0 -11 7 -8 20 3 11 2 18 -3 15 -13 -8 -19
22 -7 34 9 9 8 11 -6 5 -13 -5 -16 -2 -11 10 3 9 1 16 -5 16 -6 0 -11 11 -11
25 0 14 -4 25 -10 25 -5 0 -10 14 -10 30 0 20 -5 30 -15 30 -8 0 -15 5 -15 11
0 5 4 7 10 4 6 -3 7 1 4 9 -3 9 -10 16 -16 16 -5 0 -6 5 -3 10 3 6 1 10 -4 10
-6 0 -11 5 -11 11 0 5 6 7 13 3 6 -4 0 5 -15 20 -22 22 -25 32 -18 47 7 12 6
20 -2 25 -7 5 -8 3 -3 -6 5 -8 4 -11 -3 -6 -6 4 -9 13 -6 20 3 7 -2 16 -10 19
-9 4 -16 11 -16 17 0 6 5 8 10 5 6 -3 10 -4 10 -1 0 3 -12 13 -27 21 -16 9
-20 14 -10 11 9 -3 17 -1 17 4 0 6 -5 10 -11 10 -6 0 -9 7 -6 15 4 8 1 17 -5
21 -7 5 -8 2 -3 -6 5 -9 4 -11 -3 -6 -7 4 -12 13 -12 21 0 7 -7 21 -16 29 -12
12 -12 16 -2 16 8 0 7 4 -4 11 -10 5 -18 18 -18 28 0 9 -9 27 -20 39 -25 26
-25 33 -3 25 15 -6 16 -5 3 9 -8 9 -18 14 -21 12 -4 -2 -10 3 -13 12 -4 10 -2
13 7 8 8 -5 8 -2 -2 9 -7 9 -17 14 -22 11 -5 -3 -6 3 -2 12 4 11 -1 22 -12 30
-10 8 -14 14 -7 14 6 0 9 7 6 15 -4 8 -10 15 -16 15 -5 0 -6 -5 -2 -12 4 -6 3
-8 -3 -5 -6 4 -9 18 -7 33 2 18 -1 24 -11 20 -9 -3 -12 0 -8 10 3 8 -3 22 -13
30 -11 9 -12 12 -4 9 8 -4 2 4 -13 18 -19 17 -24 27 -15 30 9 4 8 6 -3 6 -10
1 -16 9 -15 19 0 9 -4 16 -10 15 -7 -1 -10 6 -7 18 4 15 0 22 -17 26 -16 4
-21 11 -17 29 2 13 0 21 -4 18 -9 -5 -13 11 -10 30 1 5 -6 3 -16 -4 -10 -8
-15 -10 -11 -6 4 5 3 15 -4 23 -9 11 -7 12 8 8 10 -4 6 2 -11 11 -16 10 -25
19 -18 21 8 3 7 10 -5 22 -9 10 -21 15 -27 12 -5 -2 -4 2 3 11 11 14 8 20 -22
43 -20 15 -33 32 -30 37 3 5 -2 16 -12 24 -11 9 -13 13 -6 9 6 -3 12 -1 12 4
0 10 -13 15 -31 13 -4 -1 -5 9 -2 21 4 18 3 20 -7 7 -10 -13 -11 -11 -7 7 3
12 2 22 -2 21 -3 0 -13 0 -21 1 -13 1 -13 2 0 11 13 9 13 10 0 11 -8 1 -19 1
-23 0 -5 -1 -6 3 -3 8 4 5 -1 16 -9 24 -13 14 -13 16 3 20 13 4 13 5 -4 6 -13
1 -24 10 -27 22 -3 12 -10 18 -16 15 -5 -4 -13 -1 -17 5 -4 8 -3 9 4 5 7 -4
12 -3 12 2 0 5 -12 14 -26 20 -14 7 -23 16 -19 21 3 5 -7 19 -21 30 -15 12
-22 21 -17 21 5 0 14 -5 19 -10 7 -7 11 -6 11 5 0 8 -3 13 -6 10 -3 -3 -11 5
-19 17 -7 13 -11 16 -8 7 3 -13 0 -15 -16 -11 -15 3 -16 7 -7 13 10 6 8 12 -9
27 -12 11 -22 25 -22 31 0 7 -12 23 -26 36 -17 16 -22 25 -13 25 10 1 9 4 -4
11 -9 6 -15 14 -12 19 3 4 -3 6 -13 3 -10 -2 -25 3 -33 13 -9 11 -9 15 -1 10
22 -13 13 6 -14 26 -14 11 -23 27 -20 34 4 10 -2 14 -18 14 -20 0 -23 4 -19
23 4 18 3 19 -7 7 -10 -12 -11 -11 -7 8 4 18 3 21 -7 13 -16 -13 -27 -4 -19
15 3 8 -7 27 -23 42 -15 15 -24 20 -19 12 7 -12 6 -13 -6 -2 -11 11 -12 14 -1
21 11 7 10 10 -3 14 -9 4 -13 3 -10 -2 3 -5 1 -12 -4 -15 -5 -4 -8 5 -7 18 2
17 -3 26 -17 30 -13 3 -18 10 -13 22 4 12 2 15 -9 10 -14 -5 -20 5 -16 27 1 5
-3 6 -9 2 -5 -3 -10 -1 -10 4 0 6 -6 10 -12 8 -7 -1 -12 4 -11 11 2 6 -2 12
-8 12 -5 0 -8 4 -5 9 3 5 -10 16 -29 25 -20 10 -35 24 -35 34 0 9 -17 31 -37
49 -21 19 -30 33 -22 33 10 1 9 3 -4 11 -9 6 -15 14 -12 19 3 4 -4 6 -15 3
-16 -4 -19 -2 -13 12 4 13 3 16 -5 11 -7 -4 -12 -2 -12 4 0 6 -5 8 -12 4 -8
-5 -9 -2 -4 12 4 10 4 15 0 11 -12 -12 -33 13 -27 31 6 15 4 15 -9 4 -10 -8
-19 -9 -22 -3 -3 5 0 12 6 15 7 4 3 4 -10 2 -20 -4 -21 -2 -10 12 11 13 11 15
-3 10 -12 -5 -16 -1 -15 15 1 14 -4 21 -13 19 -8 -2 -21 0 -29 3 -12 4 -12 8
-1 22 12 15 12 16 -3 10 -18 -6 -43 15 -31 27 4 4 -1 4 -11 0 -14 -5 -17 -4
-12 4 4 7 2 12 -4 12 -6 0 -8 5 -4 12 5 8 2 9 -9 5 -11 -4 -17 -1 -17 9 0 8
-4 12 -10 9 -5 -3 -10 3 -10 14 0 13 -12 26 -35 37 -19 9 -32 20 -29 25 3 5 0
9 -6 9 -6 0 -8 5 -5 10 3 6 1 10 -6 10 -6 0 -17 7 -23 15 -6 9 -21 17 -33 18
-18 1 -20 4 -10 16 9 11 9 13 0 8 -6 -4 -14 -3 -18 3 -4 6 -11 8 -16 5 -5 -3
-6 2 -2 11 4 12 3 15 -5 10 -7 -4 -12 -2 -12 4 0 6 -5 8 -12 4 -7 -5 -9 -2 -5
8 5 14 -30 40 -58 42 -5 1 -9 12 -7 26 2 20 1 22 -7 10 -10 -13 -11 -13 -12 0
-1 8 -1 18 0 22 0 4 -7 4 -16 1 -11 -4 -14 -3 -9 5 10 16 -16 15 -34 0 -12
-11 -12 -10 0 5 11 15 11 20 0 30 -10 9 -11 9 -6 0 4 -7 2 -13 -5 -13 -6 0 -9
8 -6 20 3 10 2 19 -2 18 -3 0 -15 0 -26 2 -20 1 -20 2 0 9 17 7 17 8 -8 15
-15 3 -25 11 -22 16 3 6 0 10 -7 11 -7 0 -21 2 -30 4 -10 2 -21 -2 -25 -7z
m487 -394 c0 -8 -19 -13 -24 -6 -3 5 1 9 9 9 8 0 15 -2 15 -3z m155 -154 c-3
-5 -12 -10 -18 -10 -7 0 -6 4 3 10 19 12 23 12 15 0z m-1221 -8 c3 -5 -1 -9
-9 -9 -8 0 -12 4 -9 9 3 4 7 8 9 8 2 0 6 -4 9 -8z m-114 -116 c0 -2 -8 -10
-17 -17 -16 -13 -17 -12 -4 4 13 16 21 21 21 13z m1555 -116 c3 -6 -1 -7 -9
-4 -18 7 -21 14 -7 14 6 0 13 -4 16 -10z m-1745 -94 c0 -2 -8 -10 -17 -17 -16
-13 -17 -12 -4 4 13 16 21 21 21 13z m-500 -610 c0 -2 -8 -10 -17 -17 -16 -13
-17 -12 -4 4 13 16 21 21 21 13z m3061 -333 c13 -16 12 -17 -3 -4 -10 7 -18
15 -18 17 0 8 8 3 21 -13z m-3611 -573 c0 -5 -5 -10 -11 -10 -5 0 -7 5 -4 10
3 6 8 10 11 10 2 0 4 -4 4 -10z m3242 -427 c-10 -4 -7 -9 10 -17 16 -8 22 -19
20 -36 -2 -20 -1 -22 7 -10 9 12 11 11 12 -7 1 -13 2 -29 3 -35 1 -7 8 -19 16
-26 8 -8 10 -11 3 -8 -6 4 -15 1 -19 -5 -4 -8 -3 -9 4 -5 7 4 12 2 12 -4 0 -6
5 -8 11 -4 7 4 10 -4 7 -22 -2 -18 2 -28 9 -27 17 4 37 -24 23 -32 -8 -5 -6
-14 7 -28 10 -11 12 -17 6 -13 -7 4 -13 2 -13 -3 0 -6 7 -11 16 -11 8 0 12 -4
9 -10 -3 -5 0 -10 7 -11 7 0 4 -4 -7 -9 -18 -8 -18 -9 -2 -9 10 -1 15 -5 12
-11 -3 -5 -2 -10 3 -10 5 0 9 -7 10 -15 1 -8 3 -22 4 -30 1 -8 6 -11 11 -8 6
4 8 -3 4 -16 -3 -14 0 -24 9 -28 8 -3 12 -9 9 -13 -3 -5 3 -14 12 -20 16 -10
16 -11 1 -6 -12 3 -15 1 -11 -10 3 -7 9 -14 13 -14 5 0 6 -9 3 -20 -3 -13 0
-20 8 -20 11 0 11 -2 -1 -10 -11 -7 -11 -10 -2 -10 7 0 11 -4 7 -9 -3 -5 -1
-12 5 -16 5 -3 10 -15 10 -26 0 -10 6 -19 13 -19 8 0 7 -4 -3 -10 -13 -9 -13
-11 1 -20 10 -6 15 -21 14 -40 -1 -16 1 -30 4 -30 4 0 7 -8 7 -17 1 -28 8 -47
19 -55 6 -5 5 -8 -4 -8 -11 0 -11 -3 -1 -15 10 -12 10 -15 0 -15 -9 0 -8 -5 3
-18 13 -14 14 -21 5 -30 -9 -9 -9 -12 0 -12 10 0 12 -70 12 -300 -1 -266 -3
-300 -17 -300 -12 0 -13 -3 -4 -14 8 -10 9 -16 1 -21 -7 -4 -7 -12 0 -26 9
-15 7 -19 -5 -19 -9 0 -14 -4 -11 -9 4 -5 2 -21 -3 -34 -7 -18 -7 -27 2 -31 7
-2 4 -5 -6 -5 -10 -1 -15 -6 -12 -11 4 -6 1 -17 -5 -25 -6 -8 -9 -19 -5 -25 3
-5 0 -10 -7 -10 -11 0 -10 -2 0 -9 11 -7 10 -9 -3 -15 -11 -4 -14 -12 -10 -27
5 -16 4 -19 -6 -14 -9 6 -11 3 -6 -9 5 -13 3 -17 -7 -13 -10 4 -12 0 -8 -15 4
-16 1 -20 -9 -16 -10 4 -15 -1 -15 -12 0 -11 6 -16 16 -13 8 3 5 -2 -8 -11
-15 -12 -21 -25 -18 -41 3 -17 1 -22 -9 -19 -7 3 -16 -4 -20 -15 -3 -12 -11
-18 -17 -15 -7 5 -8 2 -3 -6 6 -10 11 -9 22 5 7 11 13 14 13 7 0 -7 -9 -17
-21 -24 -11 -7 -27 -28 -36 -45 -8 -18 -19 -31 -23 -28 -5 3 -7 -6 -5 -20 1
-16 -3 -25 -11 -25 -8 0 -14 -7 -14 -15 0 -8 -7 -15 -16 -15 -14 0 -14 -3 -4
-15 11 -13 10 -14 -6 -9 -10 4 -16 4 -12 0 3 -4 -2 -16 -13 -27 -11 -11 -17
-25 -12 -32 4 -7 -2 -5 -12 3 -11 9 -16 10 -11 3 4 -7 3 -13 -3 -13 -6 0 -8
-6 -5 -14 3 -8 0 -17 -7 -22 -8 -5 -10 -3 -4 7 7 11 6 12 -7 2 -8 -7 -18 -10
-21 -6 -4 3 -7 1 -7 -5 0 -7 5 -12 11 -12 5 0 8 -4 4 -10 -3 -5 -12 -7 -19 -4
-9 3 -13 -2 -12 -17 0 -12 -6 -24 -14 -26 -12 -4 -12 -3 -2 5 11 7 11 10 -2
15 -9 4 -15 1 -13 -6 1 -7 -4 -11 -11 -9 -10 2 -10 -2 -2 -17 9 -17 7 -19 -11
-16 -15 3 -19 0 -15 -10 3 -8 1 -17 -4 -20 -6 -4 -10 -1 -10 4 0 6 -5 11 -12
11 -6 0 -8 -3 -5 -7 4 -3 1 -13 -6 -21 -10 -13 -9 -14 2 -7 10 6 12 4 7 -4 -5
-7 -14 -10 -22 -7 -8 3 -14 1 -14 -5 0 -6 -6 -7 -12 -3 -8 5 -7 0 2 -11 8 -10
10 -16 3 -12 -7 5 -21 -1 -33 -13 -11 -11 -23 -20 -27 -20 -5 0 -9 -4 -9 -10
-3 -23 -5 -24 -12 -13 -5 8 -12 7 -27 -4 -17 -13 -17 -15 -2 -9 11 3 16 2 12
-4 -3 -6 -13 -10 -21 -10 -8 0 -14 -6 -14 -12 0 -9 -4 -8 -10 2 -6 10 -10 11
-10 3 0 -7 -7 -13 -15 -13 -9 0 -18 -7 -21 -15 -4 -8 -10 -12 -15 -9 -5 3 -9
0 -9 -5 0 -6 -10 -11 -21 -11 -17 0 -19 -3 -10 -13 8 -11 6 -13 -12 -13 -15 1
-21 -4 -19 -14 3 -12 1 -12 -9 -3 -10 10 -16 9 -28 -5 -9 -9 -23 -17 -31 -17
-8 0 -14 -6 -12 -14 3 -12 0 -12 -12 -1 -13 10 -16 10 -16 0 0 -8 -9 -11 -25
-8 -19 4 -23 2 -15 -7 7 -8 6 -12 -3 -13 -43 -5 -77 -16 -77 -23 0 -5 -12 -9
-26 -9 -14 0 -23 -4 -20 -9 3 -4 -6 -6 -21 -3 -18 3 -24 1 -19 -6 5 -8 2 -10
-8 -6 -10 4 -16 1 -16 -7 0 -11 -2 -11 -8 -2 -6 10 -14 9 -35 -2 -15 -8 -25
-10 -22 -5 4 6 1 10 -4 10 -6 0 -11 -4 -11 -10 0 -5 -5 -10 -11 -10 -5 0 -7 5
-3 12 4 6 -3 5 -15 -4 -12 -8 -35 -14 -52 -12 -21 3 -28 0 -23 -8 5 -8 2 -9
-9 -5 -10 3 -17 2 -17 -4 0 -6 -7 -6 -20 1 -14 8 -20 8 -20 0 0 -8 -6 -8 -20
0 -11 6 -20 7 -20 3 0 -4 -11 -8 -25 -8 -14 0 -25 4 -25 9 0 5 -6 3 -14 -3
-10 -8 -16 -9 -21 -1 -4 7 -12 7 -25 0 -13 -7 -21 -7 -25 0 -5 8 -11 8 -20 0
-10 -8 -15 -8 -20 0 -5 8 -11 8 -21 -1 -11 -9 -14 -9 -14 0 0 9 -5 9 -20 1
-11 -6 -20 -7 -20 -3 0 4 -11 8 -25 8 -14 0 -25 -4 -25 -8 0 -4 -8 -3 -18 2
-13 7 -23 6 -30 -1 -9 -9 -12 -9 -12 1 0 7 -4 9 -10 6 -5 -3 -10 -1 -10 4 0 6
-5 11 -11 11 -5 0 -7 -6 -3 -12 5 -9 3 -9 -9 1 -9 7 -26 11 -37 8 -11 -3 -20
-1 -20 4 0 5 -13 9 -30 9 -17 0 -30 5 -30 12 0 9 -3 9 -11 1 -14 -14 -39 -6
-35 10 1 7 1 9 -1 5 -7 -12 -33 -9 -33 3 0 5 -4 7 -10 4 -5 -3 -10 0 -10 7 0
10 -3 9 -10 -2 -8 -12 -10 -12 -15 2 -4 9 -12 15 -18 12 -7 -2 -28 6 -47 18
-19 12 -46 23 -59 24 -26 3 -91 32 -91 40 0 3 5 2 12 -2 7 -5 8 -3 3 5 -5 9
-11 9 -18 2 -7 -7 -16 -3 -29 12 -11 12 -16 16 -13 9 6 -11 3 -12 -13 -3 -12
6 -24 17 -28 24 -5 7 0 6 12 -3 17 -14 18 -14 6 2 -8 9 -19 15 -27 12 -7 -3
-16 0 -20 5 -3 6 -10 9 -15 6 -4 -3 -14 3 -21 13 -13 16 -12 16 6 3 19 -14 19
-14 2 5 -15 16 -19 17 -27 4 -13 -20 -13 -8 0 25 8 21 13 24 28 16 10 -5 24
-6 32 -1 7 4 19 6 26 3 21 -8 214 -8 214 0 0 4 9 3 20 -3 11 -6 20 -7 20 -2 0
5 18 6 40 2 32 -6 40 -4 40 8 0 12 2 12 17 1 15 -12 16 -12 10 3 -5 15 -2 16
18 8 16 -6 25 -6 25 1 0 6 6 6 18 0 13 -7 22 -7 29 0 10 10 71 22 110 21 13 0
20 4 17 9 -3 5 9 7 25 5 17 -2 28 1 25 5 -3 5 3 10 13 10 10 1 23 2 28 4 6 1
16 3 23 3 7 1 11 6 7 11 -3 6 4 8 15 6 25 -5 52 4 45 14 -4 8 -1 9 52 12 22 1
35 8 39 21 4 15 9 17 20 7 11 -9 14 -9 14 0 0 7 5 9 12 5 7 -5 9 -2 5 9 -4 12
0 14 19 11 13 -2 24 0 24 6 0 6 5 8 10 5 6 -3 10 -1 10 5 0 6 4 9 9 6 15 -9
42 5 34 18 -4 6 1 5 10 -3 15 -12 17 -12 11 3 -5 13 -2 17 12 14 10 -2 19 2
19 9 0 6 4 15 9 20 5 5 6 3 2 -4 -11 -20 5 -15 25 8 17 19 18 19 28 2 11 -17
11 -17 9 2 -2 15 4 21 25 23 19 2 27 8 23 17 -3 9 1 12 15 10 13 -3 23 4 31
20 9 19 14 22 29 15 15 -8 17 -7 14 9 -2 11 3 22 11 25 10 4 12 2 8 -6 -4 -7
-3 -8 4 -4 7 4 12 14 12 23 0 9 6 13 15 9 9 -3 15 0 15 9 0 8 5 15 11 15 5 0
7 -5 3 -12 -5 -7 -3 -8 5 -4 7 5 10 13 8 20 -3 6 7 20 21 30 14 11 22 14 18 8
-10 -17 9 -15 24 3 7 8 17 12 23 8 6 -3 7 -1 3 6 -6 9 -12 9 -24 -1 -15 -12
-16 -11 -3 4 7 10 17 15 22 12 8 -4 13 8 11 27 -1 3 6 6 13 6 12 0 12 -3 2
-16 -11 -14 -10 -14 6 -2 10 8 16 20 13 27 -3 7 3 18 12 26 11 9 14 10 8 1 -4
-7 -2 -13 3 -13 9 0 15 19 13 41 -1 3 6 6 13 6 12 0 12 -4 3 -16 -8 -11 -5
-10 8 2 16 15 17 19 4 28 -12 9 -11 10 7 6 13 -3 24 1 27 10 3 8 10 11 16 8 6
-3 7 1 4 10 -6 16 32 53 48 48 4 -2 5 6 3 17 -3 14 1 17 13 13 9 -3 14 -3 10
2 -4 4 0 14 10 22 9 8 11 11 4 8 -11 -6 -12 -3 -3 13 6 12 17 24 24 28 9 6 9
5 0 -7 -10 -13 -10 -16 2 -16 7 0 14 3 13 6 -2 19 3 31 11 27 5 -4 7 4 3 16
-4 17 -2 20 11 15 11 -4 15 -1 12 14 -2 11 4 23 16 30 13 6 18 16 15 26 -5 13
-4 14 8 4 12 -10 14 -8 12 13 -2 18 3 27 16 32 11 3 17 12 14 20 -3 8 -1 14 5
14 6 0 8 4 4 9 -3 5 2 16 10 25 8 8 14 20 13 25 -2 6 13 25 32 42 19 17 30 28
23 25 -6 -3 -14 -2 -18 4 -3 5 1 10 9 10 10 0 16 9 16 24 0 13 5 26 10 28 6 2
12 13 13 26 0 12 5 22 10 22 4 0 6 4 2 9 -3 5 -1 12 5 16 5 3 10 15 10 26 0
11 4 18 8 15 5 -3 9 1 9 9 0 8 -5 12 -10 8 -5 -3 -2 6 7 19 9 14 13 28 9 31
-3 4 -1 7 5 7 6 0 9 7 6 15 -4 8 -1 15 5 15 6 0 8 7 4 17 -4 11 -3 14 5 9 8
-5 11 2 8 24 -2 17 0 33 4 35 4 3 11 21 14 40 4 19 12 35 19 35 7 0 6 4 -3 10
-11 7 -11 10 -2 10 7 0 10 5 7 10 -3 6 -2 10 4 10 6 0 6 11 1 28 -4 16 -4 36
2 45 5 10 6 22 3 28 -4 5 -2 15 3 22 14 18 21 67 10 73 -5 3 -4 11 2 19 8 10
8 15 0 20 -8 5 -8 11 1 21 9 11 9 14 0 14 -9 0 -9 5 -1 20 8 14 8 20 0 20 -8
0 -8 6 0 20 8 14 8 20 0 20 -8 0 -8 6 0 20 8 14 8 20 0 20 -8 0 -8 6 0 20 8
14 8 20 0 20 -8 0 -8 6 0 20 8 14 8 20 0 20 -8 0 -8 6 0 20 8 14 8 20 0 20 -8
0 -8 6 0 20 8 14 8 20 0 20 -8 0 -8 6 0 20 8 14 8 20 0 20 -8 0 -8 6 0 20 7
13 7 20 1 20 -7 0 -7 9 -1 25 6 15 6 26 0 30 -6 4 -10 17 -10 31 0 13 -5 24
-10 24 -7 0 -7 6 0 19 5 11 7 22 3 24 -5 3 -8 20 -8 39 0 18 -5 38 -11 43 -15
12 0 55 18 54 10 0 10 -2 0 -6z m-511 -1876 c-10 -9 -11 -8 -5 6 3 10 9 15 12
12 3 -3 0 -11 -7 -18z m-2740 -754 c13 -16 12 -17 -3 -4 -17 13 -22 21 -14 21
2 0 10 -8 17 -17z m3914 -41 c-3 -3 -11 0 -18 7 -9 10 -8 11 6 5 10 -3 15 -9
12 -12z m-60 -72 c3 -5 1 -10 -4 -10 -6 0 -11 5 -11 10 0 6 2 10 4 10 3 0 8
-4 11 -10z m-275 -274 c0 -2 -8 -10 -17 -17 -16 -13 -17 -12 -4 4 13 16 21 21
21 13z m-2380 -496 c0 -5 -2 -10 -4 -10 -3 0 -8 5 -11 10 -3 6 -1 10 4 10 6 0
11 -4 11 -10z"/>
<path d="M4575 2451 c-3 -5 -1 -12 5 -16 5 -3 10 1 10 9 0 18 -6 21 -15 7z"/>
<path d="M4309 2053 c-13 -16 -12 -17 4 -4 16 13 21 21 13 21 -2 0 -10 -8 -17
-17z"/>
<path d="M4065 1830 c-3 -5 -1 -10 4 -10 6 0 11 5 11 10 0 6 -2 10 -4 10 -3 0
-8 -4 -11 -10z"/>
<path d="M3425 6690 c-3 -6 1 -7 9 -4 18 7 21 14 7 14 -6 0 -13 -4 -16 -10z"/>
<path d="M3696 6573 c-6 -14 -5 -15 5 -6 7 7 10 15 7 18 -3 3 -9 -2 -12 -12z"/>
<path d="M3186 6468 c3 -5 10 -6 15 -3 13 9 11 12 -6 12 -8 0 -12 -4 -9 -9z"/>
<path d="M4366 5912 c-3 -5 1 -9 9 -9 8 0 12 4 9 9 -3 4 -7 8 -9 8 -2 0 -6 -4
-9 -8z"/>
<path d="M2460 5720 c-6 -11 -8 -20 -6 -20 3 0 10 9 16 20 6 11 8 20 6 20 -3
0 -10 -9 -16 -20z"/>
<path d="M4680 5546 c0 -2 8 -10 18 -17 15 -13 16 -12 3 4 -13 16 -21 21 -21
13z"/>
<path d="M4916 5241 c-3 -5 1 -11 9 -14 9 -4 12 -1 8 9 -6 16 -10 17 -17 5z"/>
<path d="M5110 4956 c0 -2 7 -7 16 -10 8 -3 12 -2 9 4 -6 10 -25 14 -25 6z"/>
<path d="M5620 4016 c0 -2 8 -10 18 -17 15 -13 16 -12 3 4 -13 16 -21 21 -21
13z"/>
<path d="M1466 1347 c3 -10 9 -15 12 -12 3 3 0 11 -7 18 -10 9 -11 8 -5 -6z"/>
<path d="M1760 1001 c0 -6 4 -13 10 -16 6 -3 7 1 4 9 -7 18 -14 21 -14 7z"/>
<path d="M1895 869 c-4 -6 -5 -12 -2 -15 2 -3 7 2 10 11 7 17 1 20 -8 4z"/>
</g>
</svg>
